<?xml version="1.0" encoding="iso-8859-1"?>
<!-- Generator: Adobe Illustrator 19.0.0, SVG Export Plug-In . SVG Version: 6.00 Build 0)  -->
<svg version="1.1" id="Capa_1" xmlns="http://www.w3.org/2000/svg" xmlns:xlink="http://www.w3.org/1999/xlink" x="0px" y="0px"
	 viewBox="0 0 512 512" style="enable-background:new 0 0 512 512;" xml:space="preserve">
<g>
	<g>
		<g>
			<path d="M204.8,102.4H17.067C7.645,102.409,0.009,110.045,0,119.467v273.067c0.009,9.422,7.645,17.057,17.067,17.067H204.8
				c9.422-0.009,17.057-7.645,17.067-17.067V119.467C221.857,110.045,214.222,102.409,204.8,102.4z M17.067,392.533V119.467H204.8
				l0.012,273.067H17.067z"/>
			<path d="M42.667,153.6c2.27,0.022,4.453-0.87,6.058-2.475c1.605-1.605,2.497-3.788,2.475-6.058
				c-0.013-1.116-0.245-2.219-0.683-3.246c-0.434-1.032-1.04-1.983-1.791-2.813c-3.421-3.158-8.695-3.158-12.117,0
				c-0.754,0.828-1.362,1.78-1.796,2.813c-0.437,1.027-0.668,2.13-0.68,3.246c-0.022,2.27,0.87,4.453,2.475,6.058
				S40.397,153.622,42.667,153.6z"/>
			<path d="M174.42,152.146c0.475,0.323,0.991,0.582,1.533,0.771c0.485,0.245,1.003,0.418,1.537,0.513
				c0.565,0.094,1.136,0.151,1.709,0.171c0.571-0.016,1.141-0.073,1.704-0.171c0.535-0.095,1.053-0.268,1.537-0.513
				c0.544-0.187,1.062-0.447,1.538-0.771c0.447-0.314,0.874-0.655,1.279-1.021c1.557-1.637,2.44-3.8,2.475-6.059
				c-0.013-1.116-0.245-2.219-0.683-3.246c-0.434-1.032-1.04-1.983-1.791-2.813c-0.429-0.341-0.854-0.683-1.279-1.025
				c-0.476-0.324-0.993-0.583-1.538-0.771c-0.484-0.246-1.002-0.417-1.537-0.508c-2.81-0.574-5.721,0.29-7.763,2.304
				c-0.754,0.828-1.362,1.78-1.796,2.813c-0.437,1.027-0.668,2.13-0.68,3.246c0.032,2.259,0.916,4.423,2.475,6.059
				C173.545,151.493,173.972,151.834,174.42,152.146z"/>
			<path d="M48.725,360.875c-3.421-3.158-8.695-3.158-12.117,0c-0.754,0.828-1.362,1.78-1.796,2.813
				c-0.437,1.027-0.668,2.13-0.68,3.246c-0.022,2.27,0.87,4.453,2.475,6.058c1.605,1.605,3.788,2.497,6.058,2.475
				c2.27,0.022,4.453-0.87,6.058-2.475c1.605-1.605,2.497-3.789,2.475-6.058c-0.013-1.116-0.245-2.219-0.683-3.246
				C50.083,362.656,49.477,361.704,48.725,360.875z"/>
			<path d="M185.259,360.875c-0.405-0.367-0.833-0.709-1.279-1.025c-0.476-0.324-0.993-0.583-1.538-0.771
				c-0.484-0.246-1.002-0.417-1.537-0.508c-2.81-0.574-5.721,0.29-7.763,2.304c-0.773,0.814-1.383,1.769-1.796,2.813
				c-0.437,1.027-0.668,2.13-0.68,3.246c0.032,2.259,0.916,4.423,2.475,6.059c0.404,0.368,0.831,0.709,1.279,1.021
				c0.475,0.323,0.991,0.582,1.533,0.771c0.485,0.245,1.003,0.418,1.537,0.513c0.565,0.094,1.136,0.151,1.709,0.17
				c0.571-0.016,1.141-0.073,1.704-0.171c0.535-0.095,1.053-0.268,1.537-0.513c0.544-0.187,1.062-0.447,1.538-0.771
				c0.447-0.314,0.874-0.655,1.279-1.021c1.557-1.637,2.44-3.8,2.475-6.059c-0.013-1.116-0.245-2.219-0.683-3.246
				C186.637,362.645,186.029,361.69,185.259,360.875z"/>
			<path d="M182.733,238.933c3.212-3.193,5.012-7.538,5-12.067V199.8c0.012-4.529-1.788-8.874-5-12.067l-12.067-12.067
				c-3.193-3.212-7.538-5.012-12.067-5H63.267c-4.529-0.012-8.874,1.788-12.067,5l-12.067,12.067c-3.212,3.193-5.012,7.538-5,12.067
				v27.067c-0.012,4.529,1.788,8.874,5,12.067l8.337,8.013c-8.714,12.714-13.365,27.773-13.337,43.187
				c-0.009,20.402,8.105,39.968,22.55,54.376c14.445,14.408,34.031,22.472,54.433,22.411c37.967,0.049,70.226-27.754,75.779-65.313
				c2.878-19.061-1.55-38.505-12.396-54.442L182.733,238.933z M170.667,226.867l-8.233,8.233
				c-5.781,5.725-6.669,14.755-2.112,21.496c14.408,21.212,13.667,49.254-1.842,69.675c-15.509,20.421-42.323,28.662-66.624,20.476
				S51.192,315.776,51.2,290.133c-0.024-11.972,3.587-23.67,10.354-33.546c4.555-6.74,3.664-15.768-2.121-21.488l-8.233-8.233V199.8
				l12.067-12.067H158.6l12.067,12.067V226.867z"/>
			<path d="M110.933,256C92.082,256,76.8,271.282,76.8,290.133s15.282,34.133,34.133,34.133s34.133-15.282,34.133-34.133
				C145.045,271.291,129.776,256.022,110.933,256z M110.933,307.2c-9.426,0-17.067-7.641-17.067-17.067s7.641-17.067,17.067-17.067
				S128,280.708,128,290.133C127.991,299.555,120.355,307.191,110.933,307.2z"/>
			<path d="M76.8,153.6h68.267c4.713,0,8.533-3.821,8.533-8.533s-3.821-8.533-8.533-8.533H76.8c-4.713,0-8.533,3.82-8.533,8.533
				S72.087,153.6,76.8,153.6z"/>
			<path d="M494.933,204.8H409.6V25.6C409.585,11.468,398.132,0.015,384,0H128c-14.132,0.015-25.585,11.468-25.6,25.6v30.6
				L91.366,45.167c-3.341-3.281-8.701-3.256-12.012,0.054S76.02,53.892,79.3,57.233l25.6,25.6c0.733,0.708,1.589,1.276,2.525,1.677
				c0.284,0.119,0.575,0.223,0.87,0.309c0.666,0.219,1.356,0.353,2.055,0.4c0.198,0.014,0.385,0.114,0.583,0.114
				c0.116,0,0.226-0.062,0.341-0.067c0.908-0.029,1.805-0.204,2.657-0.517c0.078-0.029,0.161-0.027,0.238-0.059l0.03-0.007
				c0.928-0.403,1.776-0.97,2.503-1.674c0.08-0.074,0.186-0.097,0.264-0.176l25.6-25.6c3.285-3.34,3.263-8.704-0.049-12.017
				c-3.313-3.313-8.677-3.335-12.017-0.05L119.467,56.2V25.6c0.006-4.71,3.823-8.527,8.533-8.533h256
				c4.71,0.006,8.527,3.823,8.533,8.533v179.2H307.2c-9.422,0.009-17.057,7.645-17.067,17.067v273.067
				c0.009,9.422,7.645,17.057,17.067,17.067h187.733c9.421-0.011,17.056-7.645,17.067-17.067V221.867
				C511.989,212.445,504.355,204.811,494.933,204.8z M307.2,494.933V221.867h187.733l0.009,273.067H307.2z"/>
			<path d="M329.554,255.317c1.013,0.479,2.125,0.713,3.246,0.683c2.27,0.022,4.453-0.87,6.058-2.475
				c1.605-1.605,2.497-3.788,2.475-6.058c-0.02-0.573-0.077-1.143-0.171-1.708c-0.095-0.535-0.268-1.053-0.512-1.537
				c-0.188-0.543-0.448-1.058-0.771-1.533c-0.337-0.429-0.679-0.854-1.021-1.279c-2.457-2.417-6.124-3.125-9.304-1.796
				c-1.044,0.413-1.999,1.023-2.813,1.796c-0.341,0.425-0.683,0.85-1.025,1.279c-0.323,0.475-0.582,0.991-0.771,1.533
				c-0.245,0.484-0.417,1.002-0.508,1.537c-0.096,0.565-0.153,1.136-0.171,1.709c0.032,2.259,0.916,4.423,2.475,6.059
				C327.557,254.296,328.511,254.904,329.554,255.317z"/>
			<path d="M463.275,253.525c3.365,3.3,8.752,3.3,12.117,0c0.753-0.83,1.359-1.783,1.792-2.817c0.437-1.026,0.669-2.127,0.683-3.242
				c-0.018-2.262-0.904-4.431-2.475-6.059c-3.422-3.159-8.696-3.159-12.117,0c-1.574,1.625-2.461,3.796-2.475,6.059
				c-0.031,1.119,0.203,2.23,0.683,3.242C461.916,251.742,462.522,252.695,463.275,253.525z"/>
			<path d="M336.072,461.403c-3.202-1.329-6.89-0.59-9.331,1.872c-1.559,1.635-2.443,3.799-2.475,6.059
				c0.018,0.571,0.075,1.141,0.171,1.704c0.091,0.535,0.263,1.053,0.508,1.537c0.188,0.544,0.447,1.062,0.771,1.538
				c0.341,0.425,0.683,0.85,1.025,1.279c0.815,0.771,1.77,1.379,2.813,1.792c1.027,0.438,2.13,0.67,3.246,0.683
				c2.259-0.034,4.422-0.918,6.059-2.475c0.341-0.429,0.683-0.854,1.021-1.279c0.324-0.476,0.583-0.993,0.771-1.537
				c0.245-0.485,0.418-1.003,0.513-1.537c0.094-0.564,0.151-1.133,0.171-1.705C341.354,465.867,339.274,462.732,336.072,461.403z"/>
			<path d="M475.392,463.275c-3.421-3.158-8.695-3.158-12.117,0c-0.772,0.814-1.38,1.769-1.792,2.813
				c-0.481,1.013-0.715,2.125-0.683,3.246c0,4.713,3.82,8.533,8.533,8.533s8.533-3.82,8.533-8.533
				c-0.013-1.116-0.245-2.219-0.683-3.246C476.772,465.044,476.164,464.089,475.392,463.275z"/>
			<path d="M472.867,341.333c3.212-3.193,5.012-7.538,5-12.067V302.2c0.012-4.529-1.788-8.874-5-12.067L460.8,278.067
				c-3.207-3.191-7.543-4.988-12.067-5H353.4c-4.529-0.012-8.874,1.788-12.067,5l-12.067,12.067c-3.212,3.193-5.012,7.538-5,12.067
				v27.067c-0.012,4.529,1.788,8.874,5,12.067l8.337,8.013c-8.714,12.714-13.365,27.773-13.337,43.187
				c-0.009,20.402,8.105,39.968,22.55,54.376c14.445,14.408,34.031,22.472,54.433,22.411c37.968,0.05,70.226-27.757,75.775-65.317
				c2.88-19.059-1.546-38.503-12.392-54.438L472.867,341.333z M460.8,329.267l-8.242,8.237c-5.777,5.727-6.659,14.755-2.1,21.492
				c14.408,21.213,13.666,49.255-1.844,69.676c-15.509,20.421-42.324,28.662-66.625,20.476
				c-24.301-8.186-40.664-30.971-40.657-56.614c-0.024-11.972,3.587-23.67,10.354-33.546c4.555-6.74,3.664-15.768-2.121-21.488
				l-8.233-8.233V302.2l12.067-12.067h95.333L460.8,302.2V329.267z"/>
			<path d="M401.067,358.4c-18.851,0-34.133,15.282-34.133,34.133c0,18.851,15.282,34.133,34.133,34.133
				c18.851,0,34.133-15.282,34.133-34.133C435.178,373.691,419.909,358.422,401.067,358.4z M401.067,409.6
				c-9.426,0-17.067-7.641-17.067-17.067c0-9.426,7.641-17.067,17.067-17.067c9.426,0,17.067,7.641,17.067,17.067
				C418.124,401.955,410.488,409.591,401.067,409.6z"/>
			<path d="M366.933,256H435.2c4.713,0,8.533-3.82,8.533-8.533s-3.82-8.533-8.533-8.533h-68.267c-4.713,0-8.533,3.82-8.533,8.533
				S362.221,256,366.933,256z"/>
		</g>
	</g>
</g>
<g>
</g>
<g>
</g>
<g>
</g>
<g>
</g>
<g>
</g>
<g>
</g>
<g>
</g>
<g>
</g>
<g>
</g>
<g>
</g>
<g>
</g>
<g>
</g>
<g>
</g>
<g>
</g>
<g>
</g>
</svg>
