<?xml version="1.0" encoding="iso-8859-1"?>
<!-- Generator: Adobe Illustrator 19.0.0, SVG Export Plug-In . SVG Version: 6.00 Build 0)  -->
<svg version="1.1" id="Layer_1" xmlns="http://www.w3.org/2000/svg" xmlns:xlink="http://www.w3.org/1999/xlink" x="0px" y="0px"
	 viewBox="0 0 512 512" style="enable-background:new 0 0 512 512;" xml:space="preserve">
<g>
	<g>
		<g>
			<path d="M275.643,438.028l-33.068-18.273v-28.306c0-1.582-0.602-3.159-1.81-4.362c-1.198-1.206-2.78-1.807-4.362-1.807h-84.291
				c-1.587,0-3.156,0.602-4.367,1.807c-1.203,1.203-1.802,2.78-1.802,4.362v28.306l-33.075,18.273
				c-0.32,0.187-0.609,0.448-0.809,0.799c-0.207,0.346-0.305,0.724-0.305,1.098v4.019c0,0.553,0.213,1.106,0.635,1.528
				c0.422,0.422,0.975,0.635,1.528,0.635h160.686c0.558,0,1.111-0.212,1.526-0.635c0.43-0.422,0.63-0.975,0.63-1.528v-4.019
				c0-0.374-0.095-0.753-0.297-1.098C276.26,438.476,275.981,438.217,275.643,438.028z"/>
			<path d="M384.223,373.536c2.867-2.862,4.296-6.612,4.296-10.365V130.643c0-3.748-1.428-7.496-4.296-10.36
				c-2.852-2.86-6.607-4.291-10.353-4.291H14.648c-3.75,0-7.498,1.431-10.358,4.291C1.428,123.148,0,126.895,0,130.643v232.527
				c0,3.753,1.428,7.503,4.291,10.365c2.859,2.86,6.61,4.288,10.358,4.288H373.87C377.615,377.824,381.371,376.396,384.223,373.536z
				 M194.258,371.624c-3.574,0-6.479-2.906-6.479-6.482c0-3.571,2.903-6.474,6.479-6.474s6.474,2.906,6.474,6.474
				C200.732,368.718,197.832,371.624,194.258,371.624z M363.182,352.483H25.336V141.334h337.846V352.483z"/>
			<path d="M472.97,176.301h-73.569v186.867c0,6.828-2.655,13.24-7.491,18.061c-4.808,4.815-11.226,7.475-18.04,7.475h-28.867
				v22.269c0,5.67,4.608,10.273,10.273,10.273h132.076c5.663,0,10.266-4.603,10.266-10.273V90.538
				c0-5.665-4.603-10.266-10.266-10.266H355.277c-5.665,0-10.273,4.6-10.273,10.266v14.572h16.451
				c-0.003-0.069-0.023-0.125-0.023-0.189c0-4.523,3.694-8.22,8.215-8.22H472.97c4.516,0,8.215,3.697,8.215,8.22
				c0,4.521-3.699,8.215-8.215,8.215h-80.555c3.953,4.18,6.351,9.462,6.874,15.145h73.682c4.516,0,8.215,3.702,8.215,8.223
				c0,4.518-3.699,8.215-8.215,8.215h-73.569v15.145h73.569c4.516,0,8.215,3.697,8.215,8.215
				C481.185,172.604,477.486,176.301,472.97,176.301z M425.418,366.465c0,2.263-1.856,4.111-4.111,4.111
				c-2.253,0-4.106-1.851-4.106-4.111v-12.321c0-2.26,1.856-4.106,4.106-4.106c2.258,0,4.111,1.848,4.111,4.106V366.465z
				 M421.304,335.663c-6.802,0-12.316-5.527-12.316-12.329c0-6.807,5.512-12.321,12.316-12.321c6.799,0,12.329,5.514,12.329,12.321
				C433.636,330.136,428.106,335.663,421.304,335.663z"/>
			<path d="M487.35,65.893H355.274c-13.563,0-24.653,11.087-24.653,24.645v14.572h10.273V90.538c0-7.931,6.449-14.38,14.38-14.38
				H487.35c7.923,0,14.377,6.451,14.377,14.38v320.435c0,7.931-6.454,14.38-14.377,14.38H355.274c-7.933,0-14.38-6.451-14.38-14.38
				v-22.269h-10.273v22.269c0,13.56,11.09,24.65,24.653,24.65h8.469v2.26c0,2.099,0.804,4.203,2.406,5.809
				c1.61,1.608,3.709,2.412,5.809,2.412h4.106c2.102,0,4.206-0.804,5.809-2.412c1.61-1.605,2.406-3.707,2.406-5.809v-2.26h74.051
				v2.26c0,2.099,0.812,4.203,2.406,5.809c1.608,1.608,3.709,2.412,5.814,2.412h4.106c2.104,0,4.209-0.804,5.811-2.412
				c1.603-1.605,2.406-3.707,2.406-5.809v-2.26h8.476c13.553,0,24.65-11.09,24.65-24.65V90.538
				C512,76.98,500.902,65.893,487.35,65.893z"/>
			<path d="M179.093,299.744c0.305,2.061,1.254,3.958,2.749,5.455c1.846,1.843,4.293,2.854,6.902,2.854h27.346
				c2.604,0,5.064-1.014,6.902-2.854c1.679-1.685,2.675-3.881,2.829-6.229l5.425-18.327c0.422-1.426,0.745-2.88,0.968-4.344
				c0.207-1.462,0.317-2.952,0.317-4.426v-19.891c0-2.135-0.837-4.15-2.355-5.668c-1.492-1.487-3.574-2.353-5.722-2.353
				c-2.102,0-4.14,0.824-5.624,2.255c-0.358-1.39-1.068-2.675-2.102-3.717c-1.505-1.49-3.592-2.35-5.734-2.35
				c-2.099,0-4.14,0.822-5.624,2.253c-0.346-1.39-1.065-2.667-2.109-3.715c-1.492-1.485-3.579-2.35-5.727-2.35
				c-1.83,0-3.612,0.63-5.028,1.736v-18.214c0-2.143-0.829-4.168-2.35-5.683c-1.49-1.492-3.579-2.348-5.727-2.348
				c-2.143,0-4.229,0.852-5.722,2.348c-1.516,1.513-2.35,3.538-2.35,5.683v45.422l-6.008-6.482c-1.423-1.539-3.356-2.44-5.44-2.56
				c-0.154-0.003-0.299-0.015-0.448-0.015c-1.928,0-3.789,0.704-5.251,1.966l-0.438,0.381c-1.518,1.313-2.486,3.128-2.721,5.112
				c-0.235,1.987,0.276,3.981,1.431,5.606L179.093,299.744z"/>
			<path d="M194.593,219.859v1.951c2.527-2.57,4.101-6.088,4.101-9.981c0-7.862-6.377-14.234-14.234-14.234
				c-7.862,0-14.234,6.372-14.234,14.234c0,3.863,1.546,7.352,4.042,9.915v-1.882c0-1.761,0.486-3.428,1.326-4.925
				c-0.346-0.975-0.568-2.01-0.568-3.108c0-5.202,4.229-9.436,9.436-9.436c5.202,0,9.428,4.234,9.428,9.436
				c0,1.121-0.228,2.176-0.586,3.172C194.12,216.477,194.593,218.124,194.593,219.859z"/>
			<path d="M174.264,235.852v-5.445c-6.587-3.625-11.11-10.542-11.11-18.578c0-11.732,9.541-21.279,21.271-21.279
				c11.738,0,21.279,9.546,21.279,21.279c0,8.036-4.531,14.958-11.116,18.578v4.283c0.95-0.282,1.94-0.435,2.941-0.435
				c0.046,0,0.09,0.015,0.138,0.015c7.67-4.547,12.836-12.884,12.836-22.441c0-14.395-11.676-26.076-26.076-26.076
				c-14.395,0-26.068,11.679-26.068,26.076C158.359,222.621,164.915,231.891,174.264,235.852z"/>
		</g>
	</g>
</g>
<g>
</g>
<g>
</g>
<g>
</g>
<g>
</g>
<g>
</g>
<g>
</g>
<g>
</g>
<g>
</g>
<g>
</g>
<g>
</g>
<g>
</g>
<g>
</g>
<g>
</g>
<g>
</g>
<g>
</g>
</svg>
